<?xml version="1.0" encoding="UTF-8" standalone="no"?>
<svg
   xmlns:dc="http://purl.org/dc/elements/1.1/"
   xmlns:cc="http://creativecommons.org/ns#"
   xmlns:rdf="http://www.w3.org/1999/02/22-rdf-syntax-ns#"
   xmlns:svg="http://www.w3.org/2000/svg"
   xmlns="http://www.w3.org/2000/svg"
   xmlns:sodipodi="http://sodipodi.sourceforge.net/DTD/sodipodi-0.dtd"
   xmlns:inkscape="http://www.inkscape.org/namespaces/inkscape"
   inkscape:version="1.0 (4035a4fb49, 2020-05-01)"
   sodipodi:docname="download.svg"
   version="1.1"
   width="512"
   viewBox="0 0 64 64"
   height="512"
   enable-background="new 0 0 64 64"
   id="Layer_1_1_">
  <metadata
     id="metadata11">
    <rdf:RDF>
      <cc:Work
         rdf:about="">
        <dc:format>image/svg+xml</dc:format>
        <dc:type
           rdf:resource="http://purl.org/dc/dcmitype/StillImage" />
      </cc:Work>
    </rdf:RDF>
  </metadata>
  <defs
     id="defs9" />
  <sodipodi:namedview
     inkscape:current-layer="Layer_1_1_"
     inkscape:window-maximized="1"
     inkscape:window-y="-8"
     inkscape:window-x="1912"
     inkscape:cy="258.78639"
     inkscape:cx="267.84218"
     inkscape:zoom="1.4355469"
     showgrid="false"
     id="namedview7"
     inkscape:window-height="1017"
     inkscape:window-width="1920"
     inkscape:pageshadow="2"
     inkscape:pageopacity="0"
     guidetolerance="10"
     gridtolerance="10"
     objecttolerance="10"
     borderopacity="1"
     bordercolor="#666666"
     pagecolor="#ffffff" />
  <circle
     style="fill:#5daee6;fill-opacity:1"
     id="circle2"
     r="2"
     cy="26"
     cx="25" />
  <path
     style="stroke-width:1;fill:#5daee6;fill-opacity:1"
     id="path4"
     d="M 61.707,57.293 56.699,52.285001 C 56.887,51.894002 57,51.461999 57,51.000002 57,49.346001 55.654,48 54,48 c -1.302,0 -2.402,0.839001 -2.816,2 h -5.369 c -0.302,-0.847 -0.969,-1.514 -1.816,-1.816 v -2.77 l 6.707,-6.707 C 50.895,38.52 51,38.266 51,38 v -4.184 c 1.161,-0.414 2,-1.514 2,-2.816 0,-1.654 -1.346,-3 -3,-3 -1.302,0 -2.402,0.839 -2.816,2 H 43 c -0.552,0 -1,0.447 -1,1 v 3.184 c -1.161,0.414 -2,1.514 -2,2.816 0,1.302 0.839,2.402 2,2.816 V 44 H 40.816 C 40.514,43.153 39.847,42.486 39,42.184 V 28.816 C 39.474,28.647 39.889,28.367 40.22,28 H 44 c 0.265,0 0.52,-0.105 0.707,-0.293 l 1,-1 C 45.895,26.52 46,26.266 46,26 v -1 h 5.184 c 0.414,1.161 1.514,2 2.816,2 1.654,0 3,-1.346 3,-3 0,-1.654 -1.346,-3 -3,-3 -1.302,0 -2.402,0.839 -2.816,2 H 49 v -6.184 c 1.161,-0.414 2,-1.514 2,-2.816 0,-1.654 -1.346,-3 -3,-3 -0.462,0 -0.894,0.113 -1.285,0.301 L 39.707,4.293 C 39.52,4.105 39.265,4 39,4 H 18 C 17.179,4 16.429,3.479 16.135,2.704 15.97,2.271 15.531,2.011 15.068,2.068 13.235,2.314 11.539,3.303 10.418,4.782 9.285,6.274 8.806,8.131 9.07,10.011 c 0.37,2.609 2.24,4.75 4.742,5.592 C 13.283,17.37 13,19.178 13,21 h -1 c -2.757,0 -5,2.243 -5,5 0,2.757 2.243,5 5,5 h 1.107 c 0.67,6.372 4.501,11.814 9.893,14.727 V 50 H 9 c -3.86,0 -7,3.140999 -7,7 v 5 H 4 V 57 C 4,54.242999 6.243,51.999999 9,51.999999 H 23.713 L 31,56.554 V 62 h 6 c 0.265,0 0.52,-0.105 0.707,-0.293 L 41,58.413999 l 1.293,1.293002 c 0.187,0.188 0.442,0.293 0.707,0.293 h 3.184 C 46.598,61.161001 47.698,62 49,62 c 1.654,0 3,-1.345998 3,-3.000001 0,-1.301998 -0.839,-2.401999 -2,-2.816 v -4.184 h 1.184 c 0.414,1.161001 1.514,2 2.816,2 0.462,0 0.894,-0.112999 1.285,-0.300999 l 1.301,1.301001 -1.293,1.293002 C 55.105,56.48 55,56.734001 55,57 v 5 h 2 V 57.414001 L 58,56.414 60,58.413999 V 62 h 2 v -3.999998 c 0,-0.266004 -0.105,-0.52 -0.293,-0.707002 z M 40.184,50 H 33 v -3.999999 h 2.184 C 35.598,47.161 36.698,48 38,48 c 1.302,0 2.402,-0.839 2.816,-1.999999 H 42 V 48.184 C 41.153,48.486 40.486,49.153 40.184,50 Z m -5,-37 c 0.302,0.847 0.969,1.514 1.816,1.816 V 19 H 33 V 13 Z M 37,12 c 0,-0.552 0.449,-1 1,-1 0.551,0 1,0.448 1,1 0,0.552 -0.449,1 -1,1 -0.551,0 -1,-0.448 -1,-1 z m -1.816,15 c 0.302,0.847 0.969,1.514 1.816,1.816 V 33 H 33 V 27 Z M 39,45.000001 c 0,0.551999 -0.449,1 -1,1 -0.551,0 -1,-0.448001 -1,-1 C 37,44.448001 37.449,44 38,44 c 0.551,0 1,0.448001 1,1.000001 z M 35.184,44 H 33 v -9 h 4 v 7.184 C 36.153,42.486 35.486,43.153 35.184,44 Z M 44,51.000002 c 0,0.551998 -0.449,0.999997 -1,0.999997 -0.551,0 -1,-0.447999 -1,-0.999997 C 42,50.448 42.449,50 43,50 c 0.551,0 1,0.448 1,1.000002 z M 50,30 c 0.551,0 1,0.448 1,1 0,0.552 -0.449,1 -1,1 -0.551,0 -1,-0.448 -1,-1 0,-0.552 0.449,-1 1,-1 z m -2.816,2 c 0.302,0.847 0.969,1.514 1.816,1.816 v 3.77 l -5,5 v -2.77 C 45.161,39.402 46,38.302 46,37 46,35.698 45.161,34.598 44,34.184 V 32 Z M 43,36 c 0.551,0 1,0.448 1,1 0,0.552 -0.449,1 -1,1 -0.551,0 -1,-0.448 -1,-1 0,-0.552 0.449,-1 1,-1 z m -5,-9 c -0.551,0 -1,-0.448 -1,-1 0,-0.552 0.449,-1 1,-1 0.551,0 1,0.448 1,1 0,0.552 -0.449,1 -1,1 z m 5.586,-1 H 41 c 0,-1.654 -1.346,-3 -3,-3 -1.302,0 -2.402,0.839 -2.816,2 H 33 v -4 h 7.586 L 44,24.414 v 1.172 z M 54,23 c 0.551,0 1,0.448 1,1 0,0.552 -0.449,1 -1,1 -0.551,0 -1,-0.448 -1,-1 0,-0.552 0.449,-1 1,-1 z m -5,-9 c 0,0.552 -0.449,1 -1,1 -0.551,0 -1,-0.448 -1,-1 0,-0.552 0.449,-1 1,-1 0.551,0 1,0.448 1,1 z M 45.301,12.715 C 45.113,13.106 45,13.538 45,14 c 0,1.302 0.839,2.402 2,2.816 V 23 H 45.414 L 41.707,19.293 C 41.52,19.105 41.265,19 41,19 H 39 V 14.816 C 40.161,14.402 41,13.302 41,12 41,10.346 39.654,8.9999999 38,8.9999999 36.698,8.9999999 35.598,9.8390003 35.184,11 H 33 V 6 h 5.586 z M 11.05,9.7310003 C 10.861,8.3840001 11.202,7.0550001 12.01,5.991 12.684,5.102 13.608,4.477 14.66,4.187 15.391,5.297 16.646,6 18,6 h 13 v 8 H 16.21 c -0.268,0 -0.542,-0.022 -0.798,-0.062 -0.028,-0.006 -0.055,-0.009 -0.073,-0.011 -0.027,-0.004 -0.057,-0.009 -0.08,-0.012 -2.219,-0.4 -3.911,-2.083 -4.209,-4.1839997 z M 12,29 c -1.654,0 -3,-1.346 -3,-3 0,-1.654 1.346,-3 3,-3 h 1 v 6 z m 3,0 v -8 c 0,-1.69 0.259,-3.374 0.77,-5.014 C 15.917,15.995 31,16 31,16 V 45.971 C 22.09,45.451 15,38.038 15,29 Z m 16,18.949001 v 6.247001 L 25,50.444998 V 46.647 c 1.873,0.746 3.891,1.192 6,1.302001 z m 5.586,12.051 H 33 v -3.999998 h 5.586 L 39.586,57 Z m 12.414,0 c -0.551,0 -1,-0.448 -1,-1.000002 0,-0.551998 0.449,-0.999997 1,-0.999997 0.551,0 1,0.447999 1,0.999997 0,0.552002 -0.449,1.000002 -1,1.000002 z m -1,-3.816002 c -0.847,0.302 -1.514,0.969001 -1.816,1.816003 h -2.77 l -3.707,-3.707003 c -0.187,-0.188 -0.442,-0.293 -0.707,-0.293 h -6 v -2 h 7.184 c 0.414,1.161001 1.514,2 2.816,2 1.302,0 2.402,-0.838999 2.816,-2 H 48 Z m 5,-5.183997 C 53,50.448 53.449,50 54,50 c 0.551,0 1,0.448 1,1.000002 0,0.551998 -0.449,0.999997 -1,0.999997 -0.551,0 -1,-0.447999 -1,-0.999997 z" />
</svg>
